name Walk1_EMG.mot
datacolumns 17
datarows 22
range 3.15600000 3.17700000
endheader
                time	            vasmed_r	            vaslat_r	            recfem_r	               gra_r	               sar_r	            tibant_r	           perlong_r	            addmag_r	           semimem_r	          bicfemlh_r	            gasmed_r	            gaslat_r	               sol_r	               tfl_r	              gmed_r	              gmax_r	
          3.15600000	          0.04073102	          0.00000000	          0.00000000	          0.00000000	          0.03530122	          0.00680673	          0.00000000	          0.00000000	          0.00000000	          0.00000000	          0.00000000	          0.00000000	          0.02911701	          0.00000000	          0.00000000	          0.00000000	
          3.15700000	          0.04073109	          0.00000000	          0.00000000	          0.00000000	          0.03530361	          0.00680695	          0.00000000	          0.00000000	          0.00000000	          0.00000000	          0.00000000	          0.00000000	          0.02911709	          0.00000000	          0.00000000	          0.00000000	
          3.15800000	          0.04073140	          0.00000000	          0.00000000	          0.00000000	          0.03531253	          0.00680795	          0.00000000	          0.00000000	          0.00000000	          0.00000000	          0.00000000	          0.00000000	          0.02911763	          0.00000000	          0.00000000	          0.00000000	
          3.15900000	          0.04073228	          0.00000000	          0.00000000	          0.00000000	          0.03533577	          0.00681082	          0.00000000	          0.00000000	          0.00000000	          0.00000000	          0.00000000	          0.00000000	          0.02911977	          0.00000000	          0.00000000	          0.00000000	
          3.16000000	          0.04073415	          0.00000000	          0.00000000	          0.00000000	          0.03538534	          0.00681729	          0.00000000	          0.00000000	          0.00000000	          0.00000000	          0.00000000	          0.00000000	          0.02912585	          0.00000000	          0.00000000	          0.00000000	
          3.16100000	          0.04073747	          0.00000000	          0.00000000	          0.00000000	          0.03547865	          0.00682978	          0.00000000	          0.00000000	          0.00000000	          0.00000000	          0.00000000	          0.00000000	          0.02913962	          0.00000000	          0.00000000	          0.00000000	
          3.16200000	          0.04074279	          0.00000000	          0.00000000	          0.00000000	          0.03563895	          0.00685133	          0.00000000	          0.00000000	          0.00000000	          0.00000000	          0.00000000	          0.00000000	          0.02916628	          0.00000000	          0.00000000	          0.00000000	
          3.16300000	          0.04075092	          0.00000000	          0.00000000	          0.00000000	          0.03589407	          0.00688511	          0.00000000	          0.00000000	          0.00000000	          0.00000000	          0.00000000	          0.00000000	          0.02921231	          0.00000000	          0.00000000	          0.00000000	
          3.16400000	          0.04076310	          0.00000000	          0.00000000	          0.00000000	          0.03627491	          0.00693419	          0.00000000	          0.00000000	          0.00000000	          0.00000000	          0.00000000	          0.00000000	          0.02928485	          0.00000000	          0.00000000	          0.00000000	
          3.16500000	          0.04078103	          0.00000000	          0.00000000	          0.00000000	          0.03681488	          0.00700166	          0.00000000	          0.00000000	          0.00000000	          0.00000000	          0.00000000	          0.00000000	          0.02939093	          0.00000000	          0.00000000	          0.00000000	
          3.16600000	          0.04080663	          0.00000000	          0.00000000	          0.00000000	          0.03755005	          0.00709100	          0.00001828	          0.00000000	          0.00000000	          0.00000000	          0.00000000	          0.00000000	          0.02953730	          0.00000000	          0.00000000	          0.00000000	
          3.16700000	          0.04084192	          0.00020529	          0.00000041	          0.00000000	          0.03851920	          0.00720654	          0.00166416	          0.00062366	          0.00055603	          0.00059805	          0.00080734	          0.00054116	          0.02973037	          0.00012686	          0.00001578	          0.00010710	
          3.16800000	          0.04088889	          0.00059993	          0.00015486	          0.00033202	          0.03976155	          0.00735347	          0.00367429	          0.00166481	          0.00152051	          0.00194414	          0.00300139	          0.00142613	          0.02997636	          0.00062501	          0.00039506	          0.00042201	
          3.16900000	          0.04094950	          0.00107205	          0.00035610	          0.00078308	          0.04131365	          0.00753750	          0.00608399	          0.00288120	          0.00267392	          0.00354949	          0.00579585	          0.00247946	          0.03028206	          0.00124405	          0.00087816	          0.00080631	
          3.17000000	          0.04102553	          0.00162858	          0.00061370	          0.00135292	          0.04320954	          0.00776432	          0.00892682	          0.00427802	          0.00405131	          0.00542849	          0.00925309	          0.00372517	          0.03065548	          0.00199915	          0.00147710	          0.00126818	
          3.17100000	          0.04111854	          0.00227517	          0.00093717	          0.00205703	          0.04548316	          0.00803914	          0.01223463	          0.00585981	          0.00569007	          0.00759503	          0.01341887	          0.00518676	          0.03110597	          0.00290526	          0.00220381	          0.00181593	
          3.17200000	          0.04122980	          0.00301604	          0.00133649	          0.00290964	          0.04816855	          0.00836661	          0.01603541	          0.00763146	          0.00763077	          0.01006212	          0.01832217	          0.00688601	          0.03164356	          0.00397536	          0.00306887	          0.00245670	
          3.17300000	          0.04136035	          0.00385428	          0.00182235	          0.00392281	          0.05129765	          0.00875120	          0.02035087	          0.00959798	          0.00992012	          0.01284491	          0.02397654	          0.00884290	          0.03227741	          0.00521886	          0.00408049	          0.00319591	
          3.17400000	          0.04151104	          0.00479194	          0.00240526	          0.00510652	          0.05489818	          0.00919747	          0.02519470	          0.01176309	          0.01260869	          0.01596483	          0.03038190	          0.01107495	          0.03301463	          0.00664146	          0.00524445	          0.00403755	
          3.17500000	          0.04168246	          0.00582998	          0.00309445	          0.00646961	          0.05899289	          0.00970977	          0.03057253	          0.01412833	          0.01574365	          0.01944816	          0.03752713	          0.01359680	          0.03386011	          0.00824613	          0.00656483	          0.00498447	
          3.17600000	          0.04187511	          0.00696845	          0.00389743	          0.00801985	          0.06359844	          0.01029157	          0.03648434	          0.01669322	          0.01936359	          0.02331910	          0.04539325	          0.01642194	          0.03481674	          0.01003409	          0.00804517	          0.00603837	
          3.17700000	          0.04208952	          0.00820648	          0.00482006	          0.00976317	          0.06872377	          0.01094501	          0.04292812	          0.01945528	          0.02349880	          0.02759452	          0.05395510	          0.01956545	          0.03588572	          0.01200552	          0.00968889	          0.00720010	
